<?xml version="1.0" encoding="utf-8"?>
<!-- Generator: Adobe Illustrator 23.0.6, SVG Export Plug-In . SVG Version: 6.00 Build 0)  -->
<svg version="1.1" id="Layer_1" xmlns="http://www.w3.org/2000/svg" xmlns:xlink="http://www.w3.org/1999/xlink" x="0px" y="0px"
	 viewBox="0 0 1962 1323.88" enable-background="new 0 0 1962 1323.88" xml:space="preserve">
<rect x="-0.1" y="-0.36" fill="#FFFFFF" width="1962" height="1324.45"/>
<g>
	<g>
		<path fill="#CEC3D7" d="M774.68,277.3c0,0-11.27-40.25-36.74-37.62s-29.52,14.33-50.94,5.27c-21.42-9.06-28.91-37.52-64.21-31.09
			c-35.3,6.43-39.68,45.52-79.75,42.11c-40.08-3.41-53.76-4.55-68.7,17.78L774.68,277.3L774.68,277.3z"/>
	</g>
</g>
<g>
	<g>
		<path fill="#CEC3D7" d="M146.19,396.5c0,0,20.39-44.34,75.23-30.74c54.21,13.45,78.09-64.16,126.4-58.86
			c48.31,5.31,43.76,35.59,105.38,45.98c61.62,10.39,66.57,0.42,92.26,46.13L146.19,396.5z"/>
	</g>
</g>
<path fill="#DAD8E4" d="M138.54,1158.41c0,0-136.29-255.64,22.81-345.18c159.1-89.54,598.73-35.06,574.34-333.77
	C711.31,180.75,1207.16-36.7,1429.93,339.5c165.9,280.16,160.81,470.09,330.62,473.73c169.8,3.65,83.64,344.16-63.36,347.47
	C1550.2,1164.02,138.54,1158.41,138.54,1158.41z"/>
<path fill="#CEC3D7" d="M214.58,1159.03c0,0-107.13-128.69,50.35-207.55c157.47-78.86,359.8,92.16,523.48-96.84
	c163.68-188.99,303.91-128.67,375.72-18.58c71.81,110.09,152.25,38.31,305.1,12.23c152.85-26.09,344.78,285.41,149.52,310.75
	C1431.08,1159.03,214.58,1159.03,214.58,1159.03z"/>
<path fill="#DAD8E4" d="M1646.5,675.62v17.08c0,0,32.95,98.01,103.91,100.96C1821.37,796.61,1668.67,573.44,1646.5,675.62z"/>
<path fill="#FFFFFF" d="M1472.3,649.99c-16.81,5.65-30.6,8.34-42.14,8.93c9.35-2.85,18.09-8.05,23.65-16.61
	c-36.36,13.92-77.81-23.09-82.67-31.11c-10.93-17.88,55.94-32.99,76.77-21.34c5.61,3.12,6.37,5.42,4.76,2.46
	c-5.23-9.65-13.48-18.92-24.17-26.14c-1.25-6.3-26.36-3.53-37.11,1.21c-2.28,1-4.44,2.13-6.5,3.36
	c-14.93,6.87-31.72,21.41-42.01,29.26c-50.8,38.62-41.25-25.72-68.67-47.08c-2.64-2.05-5.54-0.13-5.5,2.43
	c0.02,1.21,0.36,1.69,1.21,2.45c-0.27,0.64-0.02,1.27,0.53,2.24c-0.13-0.01-0.25-0.02-0.38-0.02c-1.35,0-2.59,1.02-2.36,1.02
	c-5.22,5.53,3.67-0.6,7.5,21.85c2.47,14.57,7.56,25.2,13,32.12c12.97,16.51,26.71,13.39,43.86,10.74
	c22.5-3.16,33.25,17.65,55.78,30.66c1.17,1.29,3.48,2.46,6.58,3.38c17.29,7.83,41.3,10.49,79.9-2.65
	C1479.35,655.44,1476.58,648.56,1472.3,649.99z M1301.09,613.04c-0.08-0.09-0.16-0.18-0.25-0.28c0.08-0.15,0.14-0.31,0.19-0.49
	c0.67,0.68,1.36,1.33,2.08,1.93C1302.41,613.85,1301.74,613.46,1301.09,613.04z"/>
<path fill="#FFFFFF" d="M1050.69,540.72c-0.79-0.72-2.02-0.11-2.13,0.77c-26.39,10.12-18.83,39.8-29.39,52.49
	c-11.87,13.6-33.07,1.12-32.84,1.12c-0.02,0-0.05-0.01-0.06-0.01l-0.09-0.06c-26.75-12.81-73.35-51.41-114.19,0.12
	c47.09-13.69,90.28,14.93,90.44,18.42c0.11,2.15,4.63,9.47-5.05,22.02c-18.67,24.3-62,27.2-87.38,15.28
	c11.91,10.84,32.04,14.68,49.46,18.81c-9.28-0.66-12.23-0.72-11.96,1.2c0.21,1.49,1.78,1,4.52,0.99
	c23.24,0.07,45.49,8.63,66.42-20.92c6.14-8.66,8.88-14.8,12.21-17.19c8.07-5.53,16.38-4.57,25.43-8.5
	c31.65-13.69,11.88-67.06,38.82-77.49c2.29-0.89,0.99-2.73-0.16-2.4c-5.12,1.53-3.56,3.3-3.58-2.33c1.69-0.56,3.36-0.66,3.03-2.07
	C1053.85,539.46,1052.27,540.2,1050.69,540.72z"/>
<path fill="#F37A7C" d="M1222.95,831.14c-17.35-5.11-26.4-20.63-28.87-38.47c-0.56-4.23-0.4-6.07-0.54-3.52
	C1193.77,789.14,1192.49,828.16,1222.95,831.14z"/>
<path fill="#F37A7C" d="M1234.36,885.61c0.11-14.37,1.52-23.01,3.47-30.65C1238.18,853.59,1231.4,859.23,1234.36,885.61z"/>
<path fill="#F37A7C" d="M1233.05,943.35c-1.5,11.78,0.57,40.67,1.65-14.69C1233.34,942.87,1232.82,943.35,1233.05,943.35z"/>
<path fill="#F37A7C" d="M1320.83,395.53c0.15,0.6,0.13,0.55,0.16,0.78c0.26-0.17,0.69,0.58-0.18-0.85L1320.83,395.53L1320.83,395.53
	z"/>
<path fill="#C52D30" d="M1222.23,834.6c11.86,3.54,14-0.33,7-1.21c-14.29-2.01-27.45-13.57-30.18-13.57
	C1192.3,819.82,1215.43,832.56,1222.23,834.6z"/>
<path fill="#C52D30" d="M1177.94,392.84c-0.79-0.13-0.55-0.04,1.2,0.06C1178.91,392.89,1177.71,392.84,1177.94,392.84z"/>
<path fill="#C52D30" d="M1320.99,396.31l-0.03-0.21c-0.05-0.22-0.23-0.93-0.17-0.71c0.21,0.5,0.35,0.75,0.43,0.86
	C1321.17,396.24,1321.09,396.24,1320.99,396.31z"/>
<path fill="#C52D30" d="M1323.82,412.72C1323.94,412.61,1323.65,414.97,1323.82,412.72L1323.82,412.72z"/>
<path fill="#E8A3AA" d="M996.11,333.49c-83.75,32.37-179.6,18.25-232.92,19.7c-91.99,2.42-131.87,63.99-120.28,120.27
	c11.26,54.81,77.83,107.92,136.13,128.67c11.71,9.9,18.08,22.96,53.62,32.14c17.66,4.49,43.19,1.44,41.93-1.43
	c-1.01-2.37,0.64,2.62-21.32-14.99c-29.5-23.65-38.13-15.82-6.4-15.82c18.98,0,35.57-10.61,34.9-12.09
	c-0.59-1.27-2.58-0.24-17.09-7.5c-45.5-22.79-40.09-12.27-29.37-20.87c6.43-5.16,11.25-12.4,17.2-19.15
	c7.09-8.14,13.95-12.22,14.02-12.34c2.03-0.23,1.44-2.86-0.17-2.56c-18.06,3.28-35.38-0.58-52.45,7.25
	c-7.01,3.22-26.69,17.11-36.75,17.95c-96.88,11.93-142.49-171.83,51.29-170.42c48.4,2.49,131.57,20.16,153.81,66.91
	c9.14,20.3,10.04,47.68,12.17,67.81c5.66,53.66,21.07,62.23,55.6,103.81c39.19,47.21,23.55,74.73,23.55,130.71
	c0,81.57,67.08,140.23,20.98,264.34c-12.27,33.05-11.58,55.2-5.04,55.2c3.99,0,6.28,3.63,18.8,4.91
	c25.34,2.38,46.08-17.12,78.05-14.05c23.48,2.62,78.41,28.15,76.24-3.32c3.66-3.21-8.7-10.38-8.01-54.61
	c4.28-282.26,35.52-147.14,27.91-273.34c-2.46-40.72-1.64-50.43,32.97-102.21c50.13-74.91,26.02-144.37,70.86-194.02
	c33.19-36.96,129.08-58.53,182.98-53.24c133.95,13.82,111.55,173.35,7.32,173.35c-9.31,0-8.93-18.02-53.45-22.36
	c-23.51-2.29-19.91-2.13-20.6-2.13c-5.59,0-6.05,6.01-2,7.03c12.59,2.96,26.37,18.42,26.14,18.21c11.72,11.28,7.62,1.86-12.23,10.45
	c-4.24,1.83-8.61,4.16-12.79,6.11c-14.87,6.95-20.86,4.22-18.97,9.67c0.85,2.48,1.56,0.64,9.68,6.86
	c21.37,16.37,40.02,8.7,34.11,13.29c-28.12,21.82-50.67,10.22-54.06,16.92c-3.99,8.06,29.65,14.37,43.96,14.37
	c31.75,0,47.78-11.09,65.86-26.84c18.98-16.52,66-15.8,95.44-44.93c40.61-40.3,69.85-164.44-47.48-206.4
	c-73.82-26.39-129.92,5.24-179.02,5.24c-64.13,0-144.75-59.04-187.67-76.63C1139.7,232.64,1069.29,305.23,996.11,333.49z
	 M982.63,341.24c-0.29-0.51-1.04,0.03,3.72-1.52C986.13,339.8,982.41,341.24,982.63,341.24z M1136.23,831.51
	c62.45,0,3.7-88.29,3.7-154.02c0.07-80.54,38.66-134.59-51.37-208.44c-28.46-23.34-61.58-47.85-43.65-73.64
	c16-21.52,56.56-18.7,83.14-14.33c70.82,11.63,222.79-32.93,196.37,41.23c-29.17,82.51-118.92,56.38-110.52,231
	c5.56,115.59-33.11,113.14-15.7,154.8c16.29,37.9,48.38,12.93,46.6,30.9c-1.04,9.28-8.17,15.51-6.84,15.51
	c-3.3,12.38-7.24,163.95-1.03,188.76c0.91,5.32,1.7,20.05-0.78,23.82c-0.99-0.65,0.08,0.66-20.53-5.43
	c-64.74-19.14-73.47,10.2-105.64,7.48c-6.7-0.53,0.06-30.73,4.37-43.95c43.63-134.2-3.86-141.38,2.46-194.1
	C1118.02,824.17,1116.89,831.51,1136.23,831.51z"/>
<path fill="#F37A7C" d="M1105.61,1048.99C1105.75,1049.06,1105.77,1049.08,1105.61,1048.99L1105.61,1048.99z"/>
<path fill="#F37A7C" d="M1123.39,1052.54C1123.07,1052.54,1123.11,1052.54,1123.39,1052.54L1123.39,1052.54z"/>
<path fill="#11112F" d="M628.72,549.78c-6.2-25.63-16.24-46.79-37.43-61.22c-9.86-6.72-29.67,0.08-36.44-7.28
	c-48.4-52.57-137.77,16.29-151.64,48.29c-19.26,44.45-15.71,90.28-33.2,162.62c0.02,9.76,8.67,21.77,15.96,32.71
	c17.32,25.98,3.68,3.21,8.48,8.99c16.01,32.91,39.9,44.57,80.21,41.92c5.74-0.38,28.28-4.28,23.4-8.98
	c-1.37-1.31-3.48,1.4-8.88-2.19c-7.03-5.09-8.33-10.85-6.34-19.85c3.63-15.15,24.75-29.59,39.23-39.66
	c16.22-11.28,37.03,74.35,40.71,77.08C682.45,870.96,642.01,604.72,628.72,549.78z M482.66,768.6c-0.05-0.04-0.11-0.07-0.16-0.1
	C481.04,767.47,482.99,768.49,482.66,768.6z"/>
<polygon opacity="0.33" fill="#2D2D2C" points="619.49,613.61 619.49,613.61 619.49,613.61 619.49,613.61 "/>
<polygon opacity="0.33" fill="#2D2D2C" points="565.73,611.57 565.74,611.57 565.74,611.57 565.73,611.57 "/>
<polygon opacity="0.33" fill="#2D2D2C" points="542.71,636.49 542.71,636.49 542.71,636.49 542.71,636.49 "/>
<path opacity="0.33" fill="#2D2D2C" d="M377,908.06l-0.56,0.65l0.02,0.34l0.02,0.31l0.19-0.22l0.92-1.1l0-0.39
	c0-0.08-0.01-0.15-0.01-0.23L377,908.06L377,908.06L377,908.06z"/>
<polygon opacity="0.33" fill="#2D2D2C" points="622.09,628.94 622.09,628.94 622.09,628.94 622.09,628.94 "/>
<polygon opacity="0.33" fill="#2D2D2C" points="474.61,707.97 474.61,707.97 474.61,707.97 474.61,707.97 "/>
<polygon opacity="0.33" fill="#2D2D2C" points="619.44,677.56 619.44,677.56 619.44,677.56 619.44,677.56 "/>
<polygon opacity="0.33" fill="#2D2D2C" points="578.48,627.86 578.48,627.86 578.48,627.86 578.48,627.86 578.48,627.86 "/>
<polygon opacity="0.33" fill="#2D2D2C" points="573.35,628.17 573.35,628.17 573.35,628.17 573.35,628.17 573.35,628.17 "/>
<path fill="#11112F" d="M632.51,601.11c2.84,39.18,5.68,78.36,8.52,117.54c1.34,18.48,3.05,37.58-1.99,55.68
	c-3.92,14.08-12.76,27.69-26.03,34.51c-13.15,6.75-34.69,4.85-39.34-11.79c-0.58-2.06-3.81-1.24-3.23,0.83
	c3.71,13.28,22.72,24.22,35.57,22.64c14.86-1.82,23.53-10.9,30.67-23.51c9.24-16.33,11.65-43.35,10.84-61.68
	c-0.93-20.88-4.9-40.68-6.41-61.52c-1.75-24.21-3.51-48.43-5.26-72.64C635.69,599.05,632.35,598.97,632.51,601.11L632.51,601.11z"/>
<path fill="#EAA18D" d="M602.99,861.12c-12.66-13.79-31.27-18.3-43.62-51.44c-2.3-29.58-0.71-9.69-2.21-52.58
	c-0.26-7.24,1.06-14.5,1.28-29.85c-17.55,13.22-53.97,6.86-78.63-3.35c-0.41,12.23-0.31,8.84-0.93,20.49
	c-2.26,15.09,0.09,6.42-2.55,29.3c-3.44,30.4-4.59,25.19-11.01,38.98c-8.7,18.81-27.38,32.21-32.91,30.82
	c-1.48-0.34-1.93,3.39-0.59,4.07c3.57,1.86,2.04-0.34,5.01,4.21c4.84,7.58,5.31,8.68,10.52,13.11
	c19.71,16.77,55.6,26.75,69.83,28.52c18.32,2.27,28.53-2.35,37.29-5.93c8.35-3.41,16.94-6.86,25.09-11.64
	C584.84,874.32,607.94,866.51,602.99,861.12z M445.51,841.93c2.4-1.81,2.09-1.84,1.33-0.63
	C446.39,841.52,445.95,841.74,445.51,841.93z M447.24,847.22c0.13-0.24,0.07-0.12,0.22-0.4
	C448.15,846.35,448.34,846.13,447.24,847.22z M448.97,851.8c0.33-0.4-0.14,0.5,0.5,1.68C446.8,851.58,448,852.94,448.97,851.8z
	 M603.49,861.79c-12.66-13.79-31.27-18.3-43.62-51.44c-2.3-29.58-0.71-9.69-2.21-52.58c-0.26-7.24,1.06-14.5,1.28-29.85
	c-17.55,13.22-53.97,6.86-78.63-3.35c-0.41,12.23-0.31,8.84-0.93,20.49c-2.26,15.09,0.09,6.42-2.55,29.3
	c-3.44,30.4-4.59,25.19-11.01,38.98c-8.7,18.81-27.38,32.21-32.91,30.82c-1.48-0.34-1.93,3.39-0.59,4.07
	c3.57,1.86,2.04-0.34,5.01,4.21c4.84,7.58,5.31,8.68,10.52,13.11c19.71,16.77,55.6,26.75,69.83,28.52
	c18.32,2.27,28.53-2.35,37.29-5.93c8.35-3.41,16.94-6.86,25.09-11.64C585.35,874.99,608.44,867.19,603.49,861.79z"/>
<polygon opacity="0.33" fill="#2D2D2C" points="556.76,744.93 556.76,744.93 556.76,744.93 556.76,744.93 "/>
<path opacity="0.33" fill="#2D2D2C" d="M387.87,1068c0.87,0.53,1.76,1.01,2.66,1.47c0.13-0.29,0.26-0.59,0.39-0.88
	c0.03-0.06,0.06-0.12,0.08-0.18c-0.55-0.28-1.09-0.57-1.63-0.87c-0.24-0.13-0.47-0.27-0.7-0.41
	C388.4,1067.43,388.14,1067.71,387.87,1068L387.87,1068L387.87,1068z"/>
<path opacity="0.33" fill="#2D2D2C" d="M450.62,1084.54c0.84,0.06,1.68,0.12,2.52,0.17c-0.54-0.35-1.06-0.73-1.57-1.14
	C451.26,1083.89,450.94,1084.22,450.62,1084.54L450.62,1084.54L450.62,1084.54z"/>
<path opacity="0.33" fill="#2D2D2C" d="M393.77,1061.38c0.11,0.12,0.23,0.24,0.34,0.35c0.18-0.37,0.36-0.74,0.53-1.1
	c-0.04-0.04-0.08-0.09-0.13-0.13C394.27,1060.79,394.02,1061.08,393.77,1061.38L393.77,1061.38L393.77,1061.38z"/>
<path fill="#1C1853" d="M567.11,707.87l-0.09,0.07l-0.14,0.11l-0.13,0.1c-2.36,1.84-4.93,3.42-7.64,4.69l-0.21,0.1
	c-1.9,0.89-3.82,1.62-5.75,2.18c-0.56,0.18-1.12,0.34-1.69,0.49c3.6,0.54,7.22,1.2,9.98,1.71c0.35-1.09,0.7-2.18,1.06-3.27
	c0.22-0.68,0.93-1.16,1.71-1.15c0.21,0,0.41,0.04,0.6,0.11c0.44,0.16,0.8,0.5,0.99,0.92c0.14,0.29,0.19,0.6,0.16,0.92l-0.2,0.98
	c-0.14,0.7-0.29,1.39-0.42,2.07c-0.01,0.05-0.02,0.09-0.03,0.14l0.17,0.04l0.05,0.01l0.02,0c0.16-1,0.33-2,0.5-2.99
	c0.1-0.52,0.28-0.87,0.6-1.14c0.12-0.1,0.26-0.19,0.4-0.24c0-1.87,0.03-3.49,0.09-4.92c0-0.13,0.01-0.25,0.01-0.37
	c0-0.21,0.01-0.42,0.02-0.63L567.11,707.87L567.11,707.87L567.11,707.87z"/>
<path fill="#1C1853" d="M522.35,723.44c-3.18,0.23-6.57,0.59-10.36,1.11c-1.43,0.2-2.86,0.41-4.29,0.63l-0.59,0.09l-0.37,0.05
	l-1.15,0.17l-1.01,0.15c-1.76,0.26-3.55,0.5-5.36,0.73c-0.22,1.41-0.44,2.79-0.67,4.08c1.98-0.26,3.97-0.53,5.96-0.81l0.1-0.02
	l0.51-0.07l0.07-0.01l0.07-0.01l0.49-0.07l0.18-0.03l0.45-0.07l0.14-0.02l0.09-0.01l0.09-0.01l0.32-0.05l0.64-0.1l0.42-0.06
	l0.17-0.03l0.2-0.03l0.09-0.01c2.7-0.41,5.75-0.87,8.77-1.22c3.58-0.41,7.23-0.69,11.16-0.86c2.72-0.1,5.43-0.13,8.06-0.11
	c2.02,0.02,4.13,0.08,6.27,0.18l0.2,0.01c4.07,0.19,8.58,0.56,13.77,1.13l0.5,0.06l0.24,0.03l0.22,0.03l0.52,0.07
	c0.31-1.14,0.62-2.29,0.95-3.41c0.03-0.09,0.05-0.18,0.08-0.27c-2.66-0.33-5.24-0.62-7.69-0.85c-4.8-0.45-9.58-0.73-14.19-0.81
	c-0.44-0.01-0.87-0.01-1.3-0.02C531.65,722.95,527.03,723.1,522.35,723.44L522.35,723.44L522.35,723.44z"/>
<linearGradient id="SVGID_1_" gradientUnits="userSpaceOnUse" x1="568.2145" y1="761.9727" x2="480.1886" y2="753.5257" gradientTransform="matrix(1 0.0103 -0.0103 1 40.5556 36.6809)">
	<stop  offset="2.223860e-03" style="stop-color:#FAB494"/>
	<stop  offset="0.3335" style="stop-color:#F79966"/>
	<stop  offset="1" style="stop-color:#D33F27"/>
</linearGradient>
<path fill="url(#SVGID_1_)" d="M512.75,794.97L512.75,794.97l-0.03-0.11c0.06,0.17,0.12,0.34,0.18,0.52
	c-0.05-0.13-0.09-0.25-0.14-0.38l-0.01,0l0.01,0C512.76,794.99,512.76,794.98,512.75,794.97L512.75,794.97L512.75,794.97z"/>
<path fill="none" d="M547.62,773.36c0,0,3.45-0.28,8.68,0.04c5.22,0.31,10.08,2.62,10.53,2.52c0.45-0.1,1.43,0.91,0.53,1.46
	c-0.9,0.54-2.78-0.27-6.21-1s-9.43-1.72-10.77-1.52c-1.34,0.2-2.57,0.79-2.57,0.79l-0.65-0.85"/>
<path fill="#F6B799" d="M552.88,524.72c-33.66-1.99-114.95,49.38-113.23,97.47c0.25,7.05,1.69,15.01,2.53,20.06
	c4.46,26.99,1.27,52.81,31.17,78.29c10.87,9.22,31.34,21.72,48.51,24.04c14.6,1.96,27.02-3.27,38.44-11.97
	c26.03-19.84,36.53-39.7,41.09-61.11c5.04-23.65,0.1-30.58,0.31-45.17c0.54-36.26-7.09-55.84-14.05-67.12
	C565,522.51,548.19,524.68,552.88,524.72z"/>
<path fill="#11112F" d="M488.05,649.2c0,0.09,0.08,0.16,0.17,0.16s0.17-0.08,0.16-0.17c0-0.09-0.08-0.16-0.17-0.16
	S488.05,649.11,488.05,649.2L488.05,649.2L488.05,649.2z"/>
<path fill="#F6B799" d="M431.14,605.71c-0.29,0-0.6,0.01-0.91,0.04c-1.19,0.11-2.38,0.61-3.37,1.41c-0.78,0.63-1.42,1.49-2.08,2.76
	c-0.54,1.04-0.9,2.18-1.18,3.15c-0.96,3.29-1.52,6.03-1.77,8.64c-0.54,5.69,0.2,11.98,2.27,19.22c1.1,3.83,2.25,7.12,3.52,10.07
	c0.83,1.93,1.67,3.58,2.56,5.05c1.14,1.89,2.23,3.29,3.44,4.4c1.31,1.21,2.71,1.91,4.15,2.08c0.17,0.02,0.34,0.03,0.51,0.03
	c0.61,0.01,1.27-0.11,1.95-0.33c0.4-0.14,0.76-0.3,1.1-0.51c0.2-0.12,0.43-0.28,0.66-0.46c0.22-0.18,0.41-0.39,0.59-0.59
	c0.51-0.56,0.88-1.25,1.15-2.09c0.23-0.73,0.37-1.55,0.42-2.49c0.09-1.8-0.18-3.65-0.45-5.21c-0.09-0.53-0.2-1.06-0.3-1.59
	l-0.13-0.68c-0.14-0.72-0.25-1.49-0.36-2.36c-0.32-2.65-0.46-5.34-0.54-7.38l0,0.01c-0.06-1.54-0.1-3.07-0.14-4.61
	c-0.08-2.9-0.16-5.91-0.36-8.85c-0.17-2.46-0.42-4.66-0.77-6.74c-0.19-1.11-0.42-2.2-0.68-3.24c-0.13-0.5-0.27-1-0.42-1.5
	c-0.11-0.35-0.23-0.7-0.34-1.04l-0.09-0.27c0.02-0.16-0.01-0.33-0.08-0.53c-0.92-2.45-2.85-4.52-5.3-5.69
	c-0.51-0.24-1.08-0.43-1.85-0.59C431.95,605.75,431.57,605.71,431.14,605.71L431.14,605.71L431.14,605.71z"/>
<path fill="#1C1853" d="M481.18,636.59c-0.03-0.18-0.06-0.36-0.07-0.54c-0.07,0-0.14,0-0.21,0c-0.24,0-0.48-0.02-0.71-0.06
	C480.5,636.21,480.84,636.41,481.18,636.59L481.18,636.59L481.18,636.59z"/>
<path fill="#F6B799" d="M559.13,528.09c0,0-3.25-5.17-3.43-7.62c-0.18-2.45-0.26-4.34-0.26-4.34s-1.48,1.98-3.41,4.17
	c-1.93,2.19-8.77,5.3-8.77,5.3s5.79-0.24,6.34-0.11C550.16,525.6,559.13,528.09,559.13,528.09z"/>
<g>
	<g>
		<path fill="#D78B8F" d="M990.65,633.75c-0.29-7.44-3.06-14.04-6.77-19.47c-6.11-8.94-14.86-15.13-24.7-18.05
			c-1.39-0.41-2.81-0.75-4.24-1.03c6.76-7.55,11.34-17.38,11.03-27.23c-0.22-6.86-2.69-12.92-6.04-17.91
			c-5.5-8.2-13.42-13.85-22.35-16.48c-6.19-1.82-12.95-2.17-19.68-0.65c0-0.09,0-0.19,0-0.28c-0.27-8.53-3.35-16.07-7.51-22.27
			c-6.84-10.2-16.69-17.23-27.8-20.5c-10.8-3.18-23.03-2.79-34.54,2.68c-1.64,0.78-3.25,1.67-4.84,2.65
			c-0.46-0.78-0.95-1.54-1.45-2.27c-5.9-8.63-14.35-14.61-23.85-17.43c-9.24-2.74-19.68-2.49-29.47,2.05
			c-9.79,4.54-18.8,13.62-23.27,24.89c-2.95,7.44-3.46,15.44-2.02,22.59c-3.35,3.52-6.15,7.75-8.01,12.43
			c-0.67,1.7-1.18,3.43-1.56,5.18c-3.35,0.61-6.7,1.64-9.98,3.15c-9.79,4.54-18.8,13.62-23.27,24.89
			c-6.47,16.33-1.23,35.34,10.72,42.24l-4.78-2.08c7.99,5.22,16.82,9.65,26.18,11.38c-0.77,1.45-1.47,2.95-2.08,4.5
			c-6.47,16.33-1.23,35.34,10.72,42.24l-4.78-2.08c13.21,8.63,28.73,15.11,45.1,10.79c0.25-0.06,0.49-0.13,0.74-0.2
			c0.15,9.53,4.35,18.31,11.22,22.27l-3.99-1.74c10.95,7.16,23.82,12.53,37.39,8.95c6.04-1.59,12.1-5.53,16.91-10.78
			c10.41,6.36,22.38,10.74,34.97,7.42c12.27-3.23,24.6-16.12,26.4-30.06c10.1,4.33,21.04,6.35,32.38,3.36
			C974.37,672.43,991.41,653.2,990.65,633.75z M818.71,563.31c0.9-1.42,1.71-2.89,2.41-4.4c0.66,1.44,1.41,2.81,2.23,4.11
			C821.77,563.08,820.23,563.17,818.71,563.31z M864.11,695.69c0.37,0.25,0.74,0.49,1.12,0.71l-1.26-0.55
			C864.02,695.8,864.07,695.74,864.11,695.69z"/>
	</g>
</g>
<path fill="#11112F" d="M976.43,634.15c-0.21-5.89-2.38-11.11-5.29-15.41c-4.79-7.07-11.67-11.95-19.41-14.24
	c-3.42-1.01-7.04-1.51-10.72-1.4c4.26-6.64,6.83-14.28,6.53-21.95c-0.28-7.19-2.96-13.55-6.54-18.8
	c-5.9-8.63-14.35-14.61-23.85-17.43c-4.12-1.22-8.49-1.85-12.92-1.76c0.1-1.28,0.14-2.56,0.09-3.84c-0.28-7.19-2.96-13.55-6.54-18.8
	c-5.9-8.63-14.35-14.61-23.85-17.43c-9.24-2.74-19.68-2.49-29.47,2.05c-1.66,0.77-3.3,1.67-4.9,2.69c-0.93-2.57-2.2-4.94-3.65-7.08
	c-4.79-7.07-11.67-11.95-19.41-14.24c-7.53-2.23-16.04-1.99-24.04,1.76s-15.37,11.22-19.04,20.48c-3.41,8.6-2.89,18.08,0.48,25.27
	c-5.45,3.91-10.2,9.53-13.06,16.12c-3.4,0.42-6.81,1.36-10.14,2.92c-8,3.75-15.37,11.22-19.04,20.48
	c-5.32,13.42-1.08,29.02,8.66,34.64l-3.92-1.71c8.98,5.88,19.27,10.53,30.2,9.82c-1.96,2.64-3.61,5.55-4.85,8.67
	c-5.32,13.42-1.08,29.02,8.66,34.64l-3.92-1.71c10.75,7.05,23.39,12.32,36.75,8.74c0.9-0.24,1.79-0.54,2.68-0.88
	c0.74,8.46,4.69,15.99,10.85,19.54l-3.92-1.71c10.75,7.05,23.39,12.32,36.75,8.74c4.13-1.11,8.27-3.33,12-6.33
	c9.93,5.85,21.25,9.69,33.15,6.5c11.71-3.14,23.5-15.25,25.87-28.56c9.03,4.66,19.05,7.3,29.53,4.49
	C963.51,664.83,976.98,649.55,976.43,634.15z"/>
<g>
	<g>
		<path fill="#E7E2E4" d="M800.12,502.45c2.26-3.2,8.1-3.89,11.52-2.89c9.4,2.74,18.96,8.64,20.17,19.1c0.52,4.48-1,9.12-2.96,13.32
			c-4.12,8.85-11.41,17.38-20.39,18.17c-4.19,0.37-8.28-1.03-11.76-3.26c-8.09-5.18-13.23-15.63-11.34-25.99
			c1.89-10.37,10.94-21.59,20.55-20.59"/>
	</g>
	<g>
		<path fill="#E7E2E4" d="M859.24,515.16c2.66-3.77,9.54-4.58,13.57-3.41c11.08,3.23,22.34,10.18,23.77,22.51
			c0.61,5.28-1.18,10.74-3.49,15.7c-4.85,10.43-13.45,20.48-24.03,21.41c-4.94,0.44-9.76-1.21-13.86-3.84
			c-9.53-6.1-15.59-18.41-13.36-30.63s12.89-25.45,24.21-24.27"/>
	</g>
	<g>
		<path fill="#E7E2E4" d="M906,555.83c1.75-2.49,6.3-3.02,8.96-2.25c7.31,2.13,14.74,6.72,15.69,14.85c0.4,3.49-0.78,7.09-2.3,10.36
			c-3.2,6.89-8.88,13.51-15.86,14.13c-3.26,0.29-6.44-0.8-9.15-2.53c-6.29-4.03-10.28-12.15-8.82-20.21
			c1.47-8.06,8.51-16.79,15.98-16.02"/>
	</g>
	<g>
		<path fill="#E7E2E4" d="M757.53,558.75c2.26-3.2,8.1-3.89,11.52-2.89c9.4,2.74,18.96,8.64,20.17,19.1c0.52,4.48-1,9.12-2.96,13.32
			c-4.12,8.85-11.41,17.38-20.39,18.17c-4.19,0.37-8.28-1.03-11.76-3.26c-8.09-5.18-13.23-15.63-11.34-25.99
			c1.89-10.37,10.94-21.59,20.55-20.59"/>
	</g>
	<g>
		<path fill="#E7E2E4" d="M814.12,560.19c1.95-2.77,7.01-3.37,9.97-2.5c8.14,2.37,16.42,7.48,17.47,16.54
			c0.45,3.88-0.87,7.89-2.56,11.53c-3.57,7.67-9.88,15.05-17.66,15.73c-3.63,0.32-7.17-0.89-10.19-2.82
			c-7-4.49-11.45-13.53-9.82-22.51c1.64-8.98,9.47-18.7,17.79-17.83"/>
	</g>
	<g>
		<path fill="#E7E2E4" d="M792,607c2.26-3.2,8.1-3.89,11.52-2.89c9.4,2.74,18.96,8.64,20.17,19.1c0.52,4.48-1,9.12-2.96,13.32
			c-4.12,8.85-11.41,17.38-20.39,18.17c-4.19,0.37-8.28-1.03-11.76-3.26c-8.09-5.18-13.23-15.63-11.34-25.99
			c1.89-10.37,10.94-21.59,20.55-20.59"/>
	</g>
	<g>
		<path fill="#E7E2E4" d="M839.64,634.45c2.26-3.2,8.1-3.89,11.52-2.89c9.4,2.74,18.96,8.64,20.17,19.1c0.52,4.48-1,9.12-2.96,13.32
			c-4.12,8.85-11.41,17.38-20.39,18.17c-4.19,0.37-8.28-1.03-11.76-3.26c-8.09-5.18-13.23-15.63-11.34-25.99
			c1.89-10.37,10.94-21.59,20.55-20.59"/>
	</g>
	<g>
		<path fill="#E7E2E4" d="M938.91,616.14c1.75-2.49,6.3-3.02,8.95-2.25c7.31,2.13,14.74,6.72,15.68,14.85
			c0.4,3.48-0.78,7.09-2.3,10.35c-3.2,6.88-8.87,13.51-15.85,14.13c-3.26,0.29-6.44-0.8-9.14-2.53
			c-6.29-4.03-10.28-12.15-8.81-20.21c1.47-8.06,8.5-16.79,15.97-16.01"/>
	</g>
	<g>
		<path fill="#E7E2E4" d="M856,590.28c1.57-2.22,5.62-2.7,8-2.01c6.53,1.9,13.16,6,14,13.26c0.36,3.11-0.7,6.33-2.05,9.25
			c-2.86,6.15-7.92,12.06-14.16,12.61c-2.91,0.26-5.75-0.71-8.17-2.26c-5.61-3.6-9.18-10.85-7.87-18.05
			c1.31-7.2,7.59-14.99,14.26-14.3"/>
	</g>
	<g>
		<path fill="#E7E2E4" d="M887.99,644.99c1.57-2.22,5.62-2.7,8-2.01c6.53,1.9,13.16,6,14,13.26c0.36,3.11-0.7,6.33-2.05,9.25
			c-2.86,6.15-7.92,12.06-14.16,12.61c-2.91,0.26-5.75-0.71-8.17-2.26c-5.61-3.6-9.18-10.85-7.87-18.05s7.59-14.99,14.26-14.3"/>
	</g>
	<g>
		<path fill="#E7E2E4" d="M897.2,598.57c1.82-2.58,6.55-3.14,9.31-2.34c7.6,2.22,15.32,6.98,16.3,15.44
			c0.42,3.62-0.81,7.37-2.39,10.76c-3.33,7.16-9.22,14.05-16.48,14.68c-3.39,0.3-6.69-0.83-9.51-2.63
			c-6.54-4.19-10.69-12.63-9.16-21.01c1.53-8.38,8.84-17.45,16.61-16.64"/>
	</g>
</g>
<g>
	<g>
		<path fill="#D78B8F" d="M1393.85,701.48c11.34,2.99,22.28,0.98,32.38-3.36c1.81,13.94,14.13,26.83,26.4,30.06
			c12.59,3.32,24.56-1.06,34.97-7.42c4.81,5.25,10.86,9.19,16.91,10.78c13.58,3.58,26.44-1.79,37.39-8.95l-3.99,1.74
			c6.87-3.95,11.07-12.74,11.22-22.27c0.25,0.07,0.49,0.14,0.74,0.2c16.37,4.32,31.89-2.16,45.1-10.79l-4.78,2.08
			c11.94-6.9,17.19-25.91,10.72-42.24c-0.61-1.54-1.31-3.04-2.08-4.5c9.36-1.73,18.19-6.16,26.18-11.38l-4.78,2.08
			c11.94-6.9,17.19-25.91,10.72-42.24c-4.47-11.27-13.48-20.35-23.27-24.89c-3.28-1.52-6.63-2.55-9.98-3.15
			c-0.38-1.74-0.89-3.48-1.56-5.18c-1.85-4.68-4.65-8.9-8.01-12.43c1.44-7.15,0.93-15.15-2.02-22.59
			c-4.47-11.27-13.48-20.35-23.27-24.89c-9.79-4.54-20.23-4.79-29.47-2.05c-9.5,2.82-17.95,8.8-23.85,17.43
			c-0.5,0.74-0.99,1.5-1.45,2.27c-1.59-0.99-3.2-1.88-4.84-2.65c-11.51-5.47-23.74-5.86-34.54-2.68
			c-11.11,3.27-20.96,10.3-27.8,20.5c-4.16,6.2-7.24,13.74-7.51,22.27c0,0.09,0,0.19,0,0.28c-6.73-1.53-13.49-1.17-19.68,0.65
			c-8.93,2.63-16.85,8.28-22.35,16.48c-3.34,4.98-5.82,11.05-6.04,17.91c-0.31,9.85,4.27,19.67,11.03,27.23
			c-1.44,0.28-2.85,0.62-4.24,1.03c-9.84,2.92-18.59,9.11-24.7,18.05c-3.71,5.43-6.48,12.03-6.77,19.47
			C1359.85,677.78,1376.9,697.01,1393.85,701.48z M1527.92,587.6c0.82-1.3,1.56-2.67,2.23-4.11c0.7,1.51,1.5,2.98,2.41,4.4
			C1531.04,587.75,1529.49,587.66,1527.92,587.6z M1487.29,720.43l-1.26,0.55c0.38-0.22,0.75-0.46,1.12-0.71
			C1487.2,720.32,1487.25,720.38,1487.29,720.43z"/>
	</g>
</g>
<path fill="#11112F" d="M1374.84,658.73c0.21-5.89,2.38-11.11,5.29-15.41c4.79-7.07,11.67-11.95,19.41-14.24
	c3.42-1.01,7.04-1.51,10.72-1.4c-4.26-6.64-6.83-14.28-6.53-21.95c0.28-7.19,2.96-13.55,6.54-18.8c5.9-8.63,14.35-14.61,23.85-17.43
	c4.12-1.22,8.49-1.85,12.92-1.76c-0.1-1.28-0.14-2.56-0.09-3.84c0.28-7.19,2.96-13.55,6.54-18.8c5.9-8.63,14.35-14.61,23.85-17.43
	c9.24-2.74,19.68-2.49,29.47,2.05c1.66,0.77,3.3,1.67,4.9,2.69c0.93-2.57,2.2-4.94,3.65-7.08c4.79-7.07,11.67-11.95,19.41-14.24
	c7.53-2.23,16.04-1.99,24.04,1.76c8,3.75,15.37,11.22,19.04,20.48c3.41,8.6,2.89,18.08-0.48,25.27c5.45,3.91,10.2,9.53,13.06,16.12
	c3.4,0.42,6.81,1.36,10.14,2.92c8,3.75,15.37,11.22,19.04,20.48c5.32,13.42,1.08,29.02-8.66,34.64l3.92-1.71
	c-8.98,5.88-19.27,10.53-30.2,9.82c1.96,2.64,3.61,5.55,4.85,8.67c5.32,13.42,1.08,29.02-8.66,34.64l3.92-1.71
	c-10.75,7.05-23.39,12.32-36.75,8.74c-0.9-0.24-1.79-0.54-2.68-0.88c-0.74,8.46-4.69,15.99-10.85,19.54l3.92-1.71
	c-10.75,7.05-23.39,12.32-36.75,8.74c-4.13-1.11-8.27-3.33-12-6.33c-9.93,5.85-21.25,9.69-33.15,6.5
	c-11.71-3.14-23.5-15.25-25.87-28.56c-9.03,4.66-19.05,7.3-29.53,4.49C1387.76,689.41,1374.29,674.13,1374.84,658.73z"/>
<g>
	<g>
		<path fill="#E7E2E4" d="M1551.15,527.03c-2.26-3.2-8.1-3.89-11.52-2.89c-9.4,2.74-18.96,8.64-20.17,19.1
			c-0.52,4.48,1,9.12,2.96,13.32c4.12,8.85,11.41,17.38,20.39,18.17c4.19,0.37,8.28-1.03,11.76-3.26
			c8.09-5.18,13.23-15.63,11.34-25.99c-1.89-10.37-10.94-21.59-20.55-20.59"/>
	</g>
	<g>
		<path fill="#E7E2E4" d="M1492.03,539.74c-2.66-3.77-9.54-4.58-13.57-3.41c-11.08,3.23-22.34,10.18-23.77,22.51
			c-0.61,5.28,1.18,10.74,3.49,15.7c4.85,10.43,13.45,20.48,24.03,21.41c4.94,0.44,9.76-1.21,13.86-3.84
			c9.53-6.1,15.59-18.41,13.36-30.63c-2.23-12.22-12.89-25.45-24.21-24.27"/>
	</g>
	<g>
		<path fill="#E7E2E4" d="M1445.27,580.41c-1.75-2.49-6.3-3.02-8.96-2.25c-7.31,2.13-14.74,6.72-15.69,14.85
			c-0.4,3.49,0.78,7.09,2.3,10.36c3.2,6.89,8.88,13.51,15.86,14.13c3.26,0.29,6.44-0.8,9.15-2.53c6.29-4.03,10.28-12.15,8.82-20.21
			s-8.51-16.79-15.98-16.02"/>
	</g>
	<g>
		<path fill="#E7E2E4" d="M1593.74,583.33c-2.26-3.2-8.1-3.89-11.52-2.89c-9.4,2.74-18.96,8.64-20.17,19.1
			c-0.52,4.48,1,9.12,2.96,13.32c4.12,8.85,11.41,17.38,20.39,18.17c4.19,0.37,8.28-1.03,11.76-3.26
			c8.09-5.18,13.23-15.63,11.34-25.99c-1.89-10.37-10.94-21.59-20.55-20.59"/>
	</g>
	<g>
		<path fill="#E7E2E4" d="M1537.15,584.77c-1.95-2.77-7.01-3.37-9.97-2.5c-8.14,2.37-16.42,7.48-17.47,16.54
			c-0.45,3.88,0.87,7.89,2.56,11.53c3.57,7.67,9.88,15.05,17.66,15.73c3.63,0.32,7.17-0.89,10.19-2.82
			c7-4.49,11.45-13.53,9.82-22.51c-1.64-8.98-9.47-18.7-17.79-17.83"/>
	</g>
	<g>
		<path fill="#E7E2E4" d="M1559.26,631.58c-2.26-3.2-8.1-3.89-11.52-2.89c-9.4,2.74-18.96,8.64-20.17,19.1
			c-0.52,4.48,1,9.12,2.96,13.32c4.12,8.85,11.41,17.38,20.39,18.17c4.19,0.37,8.28-1.03,11.76-3.26
			c8.09-5.18,13.23-15.63,11.34-25.99c-1.89-10.37-10.94-21.59-20.55-20.59"/>
	</g>
	<g>
		<path fill="#E7E2E4" d="M1511.63,659.03c-2.26-3.2-8.1-3.89-11.52-2.89c-9.4,2.74-18.96,8.64-20.17,19.1
			c-0.52,4.48,1,9.12,2.96,13.32c4.12,8.85,11.41,17.38,20.39,18.17c4.19,0.37,8.28-1.03,11.76-3.26
			c8.09-5.18,13.23-15.63,11.34-25.99c-1.89-10.37-10.94-21.59-20.55-20.59"/>
	</g>
	<g>
		<path fill="#E7E2E4" d="M1412.36,640.72c-1.75-2.49-6.3-3.02-8.95-2.25c-7.31,2.13-14.74,6.72-15.68,14.85
			c-0.4,3.48,0.78,7.09,2.3,10.35c3.2,6.88,8.87,13.51,15.85,14.13c3.26,0.29,6.44-0.8,9.14-2.53c6.29-4.03,10.28-12.15,8.81-20.21
			c-1.47-8.06-8.5-16.79-15.97-16.01"/>
	</g>
	<g>
		<path fill="#E7E2E4" d="M1495.27,614.86c-1.57-2.22-5.62-2.7-8-2.01c-6.53,1.9-13.16,6-14,13.26c-0.36,3.11,0.7,6.33,2.05,9.25
			c2.86,6.15,7.92,12.06,14.16,12.61c2.91,0.26,5.75-0.71,8.17-2.26c5.61-3.6,9.18-10.85,7.87-18.05
			c-1.31-7.2-7.59-14.99-14.26-14.3"/>
	</g>
	<g>
		<path fill="#E7E2E4" d="M1463.28,669.57c-1.57-2.22-5.62-2.7-8-2.01c-6.53,1.9-13.16,6-14,13.26c-0.36,3.11,0.7,6.33,2.05,9.25
			c2.86,6.15,7.92,12.06,14.16,12.61c2.91,0.26,5.75-0.71,8.16-2.26c5.61-3.6,9.18-10.85,7.87-18.05s-7.59-14.99-14.26-14.3"/>
	</g>
	<g>
		<path fill="#E7E2E4" d="M1454.07,623.15c-1.82-2.58-6.55-3.14-9.31-2.34c-7.6,2.22-15.32,6.98-16.3,15.44
			c-0.42,3.62,0.81,7.37,2.39,10.76c3.33,7.16,9.22,14.05,16.48,14.68c3.39,0.3,6.69-0.83,9.51-2.63
			c6.54-4.19,10.69-12.63,9.16-21.01c-1.53-8.38-8.84-17.45-16.61-16.64"/>
	</g>
</g>
<path fill-rule="evenodd" clip-rule="evenodd" fill="#452415" d="M507.74,588.9c-7.9,4.26-16.12-0.26-24.3-0.52
	c-8.55-0.27-16.87,0.99-27.13,4.69c-0.86,0.63-1.29,0.08-1.69-0.52c12.33-7.96,24.46-10.59,35.61-9.89
	C496.4,583.05,504.44,583.77,507.74,588.9z"/>
<path fill-rule="evenodd" clip-rule="evenodd" fill="#452415" d="M590.23,593.09c0.22,0.32,0.43,0.64,0.65,0.96
	c-6.96-1.25-13.36-4.72-20.61-4.83c-4.25,1.52-8.68,3.8-12.17,2.31C562.28,578.73,583.02,585.23,590.23,593.09z"/>
<g>
	<path fill="#FFFFFF" d="M468.63,620.45c0,0,25.91-24.86,37.34-0.91c1,2.09,2.17,8,2.91,10.83
		C510.21,635.4,478.72,645.26,468.63,620.45z"/>
	<path fill="#26817D" d="M507.88,620.28c0.14,7.72-6.01,14.09-13.73,14.22c-7.72,0.14-14.08-6.01-14.22-13.72
		c-0.14-7.72,6.01-14.08,13.73-14.22C501.38,606.42,507.74,612.56,507.88,620.28z"/>
	<path d="M497.07,609.88c4.08,0.97,7.15,4.6,7.22,8.98c0.09,5.19-4.04,9.47-9.23,9.57c-5.19,0.09-9.47-4.04-9.57-9.23
		c-0.09-5.19,4.04-9.47,9.23-9.57C495.54,609.62,496.32,609.71,497.07,609.88z"/>
	<path fill="#FFFFFF" d="M505.37,623.3c0.03,1.78-1.38,3.24-3.16,3.27c-1.78,0.03-3.24-1.38-3.27-3.16
		c-0.03-1.77,1.38-3.24,3.16-3.27C503.87,620.11,505.34,621.52,505.37,623.3z"/>
	<path fill="#FFFFFF" d="M490.58,626.4c0.02,1.02-0.8,1.87-1.82,1.89c-1.02,0.02-1.87-0.8-1.89-1.82c-0.02-1.02,0.8-1.87,1.82-1.89
		C489.72,624.56,490.56,625.38,490.58,626.4z"/>
	<path fill="#231F20" d="M470.26,621.51c-1.51-1.21,25.19-30.13,39.74,8.94c0.55,1.47,1.33-23.1-19.76-26.12
		c-7.69-1.1-15.07,1.01-20.87,9.03c-6.99,9.67-5.79,8.51-5.79,8.51l8.99,5.04L470.26,621.51z"/>
</g>
<g>
	<path fill="#FFFFFF" d="M588.19,627.9c0,0-17.38-27.94-32.96-9.26c-1.36,1.63-3.74,6.62-5.04,8.96
		C547.88,631.76,573.61,647.65,588.19,627.9z"/>
	<path fill="#26817D" d="M560.15,619.9c-1.87,6.82,2.15,13.87,8.97,15.74c6.82,1.87,13.87-2.15,15.74-8.97
		c1.87-6.82-2.15-13.87-8.97-15.74C569.07,609.06,562.02,613.07,560.15,619.9z"/>
	<path d="M572.51,613.18c-3.84-0.07-7.39,2.47-8.45,6.34c-1.26,4.59,1.44,9.33,6.03,10.59c4.59,1.26,9.33-1.45,10.58-6.04
		c1.26-4.59-1.44-9.33-6.03-10.58C573.93,613.3,573.21,613.19,572.51,613.18z"/>
	<path fill="#FFFFFF" d="M577.57,623.27c-0.43,1.57,0.49,3.19,2.06,3.62c1.57,0.43,3.19-0.5,3.62-2.06
		c0.43-1.57-0.49-3.19-2.06-3.62C579.63,620.78,578,621.7,577.57,623.27z"/>
	<path fill="#FFFFFF" d="M566.75,629.14c-0.25,0.91,0.28,1.84,1.19,2.09c0.91,0.25,1.84-0.29,2.09-1.19
		c0.25-0.9-0.28-1.84-1.19-2.09C567.94,627.7,567,628.23,566.75,629.14z"/>
	<path fill="#231F20" d="M587.29,628.6c1.61-0.73-15.55-32.47-37.32-1.05c-0.82,1.18,4.05-20.82,23.46-18.73
		c7.08,0.76,13.16,4.31,16.49,12.74c4.02,10.18,3.21,8.87,3.21,8.87l-9.13,2.44L587.29,628.6z"/>
</g>
<path fill="#DF8F7D" d="M522.34,664.6c2.99,0.13,5.99,0.39,8.98,0.34c2.51-0.04,4.97-0.49,7.01-2.27c1.36-1.19,1.64-2.5,0.98-4.07
	c-1.24-2.95-2.54-5.87-3.76-8.83c-0.38-0.91-0.57-1.9-0.85-2.86c0.35,0,0.71,0,1.06,0c0.31,0.59,0.59,1.21,0.93,1.78
	c2.32,3.88,7.76,5.59,8.63,10.23c0.17,0.93-0.35,3.13-0.4,3.32c-1.83,7.18-13.38,7.43-15.39,7.19c-3.05-0.36-5.38-0.76-7.19-3.76
	C522.34,665.31,522.34,664.96,522.34,664.6z"/>
<path fill="#ED8778" d="M455.14,642.67c15.41-10.53,57.22,15.3,33.1,32.19C464.07,691.67,439.71,653.2,455.14,642.67z"/>
<path fill="#ED8778" d="M603.61,653.78c-0.7,7.97-1.57,13.98-4.34,24.93c-0.53,2.11-1.22,4.12-1.97,6.18
	c-5.51,3.35-12.39,4.24-19.65-0.05C555.78,671.89,588.75,647.24,603.61,653.78z"/>
<g>
	<path fill="#971E5B" d="M503.75,686.21c6.55,0.8,17.99-2.3,26.23-2.65c6.04-0.27,12.19,3.32,18.16,3.96c1.94,0.2,9.63-0.37,8.5,0.7
		c-1.37,1.28-5.31,4.73-8.75,4.41c-13.03-1.22-24.72-0.85-37.75,0.68C508.9,693.48,504.54,687.53,503.75,686.21"/>
</g>
<path fill="#ED8778" d="M553.75,690.74c0,0.2-1.41,1.36-1.64,1.51c-1.9,1.22-3.78,2.46-5.68,3.69c-3.4,2.21-7.23,3.25-11.19,3.41
	c-4.14,0.16-8.36,0.32-12.42-0.33c-5.85-0.94-13.6-3.89-16.69-8.85c-0.94-1.5,12.6,0.37,14.5,0.36c6.49-0.04,13-0.06,19.5-0.01
	c1.57,0.01,3.21,0.06,4.78,0.15c1.14,0.06,3.65-0.04,4.81,0.03C551.26,690.77,552.21,690.58,553.75,690.74z"/>
<path fill="#ED8778" d="M507.78,686.11c4.01-3.5,6.49-2.75,11.85-2.79c2.22-0.01,4.45,0.33,6.67,0.3c4.16-0.05,8.31-0.19,12.47-0.39
	c4.63-0.22,6.32,0.09,9.93,1.64c0.15,0.13,4.49,2.5,4.54,2.89c-1.57-0.41-22.95-0.33-25.47-0.16c-3.63,0.23-19.62-0.95-20.92-0.76
	C507.31,686.31,507.78,686.21,507.78,686.11z"/>
<path fill="#11112F" d="M362.17,700.87c0.03-18.36,0.34-36.71,1.77-55.01c2.71-34.71,9.78-69.48,26.19-100.49
	c8.86-16.75,20.43-30.29,33.66-42.06c-10.81,16.08-19.21,33.65-27.96,58.47C384.35,594.31,373.52,639.1,362.17,700.87z"/>
<path fill="#11112F" d="M604.25,492.33c0.05,0.19,0.1,0.35,0.15,0.53c-6.74-5.33-12.28-6.73-24.34-7.42
	c-9.15-0.52-18,1.21-26.71,5.01c8.51-6.38,18.25-11.29,28.65-12.44C593.07,476.79,601.12,481.62,604.25,492.33z"/>
<g>
	<path fill="#D38D77" d="M479.76,738.02c17.81,4.75,30.48,16.91,48.9,16.3c15.65-0.51,30.62-7.64,33.12-23.1
		c-2.08,0.5-3.58,2.23-5.11,3.73c-10.3,10.11-26.45,12.2-40.51,8.94c-14.06-3.27-24.69-10.76-36.89-18.46
		C479.76,730.85,480.01,733.08,479.76,738.02"/>
</g>
<path fill="#FAC4C0" d="M382.47,804.49c-54.74-0.56-173.64,113.69-189.48,238.01c-21.5,168.89,182.58,142.87,279.57,143.87
	c170.39,1.76,242.69,63.01,293.28,11.07c40.95-42.01-7.97-124.19-4.11-183.14c2.96-45.15-10.25-137.49-102.86-175.45
	c-29.12-11.94-75.51-15.19-106.85-13.84c0.07,0.01-75.84,25.04-139.25-8.65c-14.96-8.12-15.53-11.22-16.74-9.53
	C395.2,808,392.92,804.6,382.47,804.49z M329.53,828.18C329.53,828.18,329.53,828.18,329.53,828.18l0.15-0.09l0.1-0.06
	c-0.26,0.16-0.52,0.33-0.79,0.5C329.17,828.41,329.35,828.3,329.53,828.18L329.53,828.18L329.53,828.18z M283.86,867.21l0.02-0.03
	l0.04-0.03c-0.44,0.47-0.89,0.95-1.33,1.43c0.41-0.45,0.82-0.89,1.23-1.33l0,0l0,0c0.01-0.01,0.02-0.02,0.02-0.03l0.01,0
	L283.86,867.21c0,0,0.01,0,0.01-0.01L283.86,867.21L283.86,867.21L283.86,867.21z M391.31,937.46l-0.02-0.31l-0.02-0.34l0.57-0.65
	l0.57-0.66l0.01,0.63l-0.93,1.1L391.31,937.46L391.31,937.46L391.31,937.46z M199.18,1021.08l0-0.03l0.02-0.05
	c-0.09,0.38-0.18,0.77-0.27,1.15c0.07-0.34,0.15-0.67,0.23-1.01c0,0,0,0,0,0l0,0c0-0.01,0-0.02,0.01-0.03l0-0.01l0-0.01
	c0-0.01,0-0.02,0.01-0.03L199.18,1021.08L199.18,1021.08L199.18,1021.08z"/>
<path fill="#E8A3AA" d="M388.58,813.88c-51.93-0.54-164.75,109.39-179.79,228.98c-20.42,162.46,173.2,137.41,265.22,138.36
	c161.65,1.67,230.23,60.58,278.24,10.61c38.85-40.42-21.26-93.11-28.59-149.45c-10.36-79.44-37.79-169.41-106.28-170.12
	c-29.86-0.31-123,18.85-152.73,20.15c0.07,0,12.86-34.71-47.3-67.11c-14.19-7.8-14.73-10.79-15.88-9.17
	C400.66,817.25,398.49,813.98,388.58,813.88z M338.36,836.68C338.36,836.68,338.36,836.68,338.36,836.68l0.14-0.09l0.09-0.05
	c-0.25,0.16-0.5,0.32-0.75,0.48C338.01,836.9,338.19,836.79,338.36,836.68L338.36,836.68L338.36,836.68z M295.02,874.22l0.02-0.02
	l0.04-0.03c-0.42,0.46-0.84,0.92-1.26,1.38c0.39-0.43,0.78-0.86,1.17-1.28l0,0l0,0c0.01-0.01,0.02-0.02,0.02-0.03l0.01,0
	L295.02,874.22c0,0,0.01,0,0.01-0.01L295.02,874.22L295.02,874.22L295.02,874.22z M396.95,941.79l-0.02-0.3l-0.02-0.33l0.54-0.62
	l0.54-0.63l0.01,0.61l-0.88,1.06L396.95,941.79L396.95,941.79L396.95,941.79z M214.66,1022.26l0-0.03l0.02-0.05
	c-0.09,0.37-0.17,0.74-0.25,1.11c0.07-0.32,0.14-0.65,0.22-0.97c0,0,0,0,0,0l0,0c0-0.01,0-0.02,0.01-0.03l0-0.01l0-0.01
	c0-0.01,0-0.02,0.01-0.03L214.66,1022.26L214.66,1022.26L214.66,1022.26z"/>
<path fill="#FAC4C0" d="M591.28,874.68c-0.05,0-19.82,8.26-38.66,18.92c-7.99,4.52-15.8,9.47-21.88,14.41
	c-7.27,5.92-11.77,12.13-11.63,23.97c0.16,12.98,9.55,38.38,9.64,38.38l0,0.01l-0.01,0c14.24,45.63,39.61,149.3,104.05,206.62
	c68.8,61.2,142.09,33.76,135.25-21.55c-4.21-34.13-28.44-62.78-48.21-93.99c-27.66-43.73-52.47-89-82.04-131.28
	c-5.21-7.48-12.83-21.73-21.84-34.82C597.69,868.85,591,874.68,591.28,874.68z M772.46,809.53
	C773.17,809.07,772.39,809.52,772.46,809.53L772.46,809.53z"/>
<path opacity="0.46" fill="#1C1853" d="M553.44,893.87c-7.35,4.3-24.43,15.82-28.05,19.33c-3.62,3.5-8.13,12.14-4.96,12.19
	c3.17,0.05,65.48-30.3,67.87-31.92c4.01-2.7,16.43-11.01,16.43-11.01l-5.87-4.06C598.85,878.4,594.84,869.62,553.44,893.87z"/>
<path fill="#11112F" d="M491.92,884.84c-7.02-35.24-18.29-69.58-15.6-111.16l-7.51,1.84c2.46-48.06-28.36-90.5-55.55-128.73
	c-13.07-18.37-7.47-33.43-20.54-51.8c-14.6,92.88-24.05,89.24-36.93,144.26c-12.02,51.34-63.26,97.04-46.16,142.34
	c0.25,3.5,1.24,7.01,2.66,10.22c2.67,6.04,6.72,11.35,10.22,16.95c6.42,10.28,11.02,21.57,15.58,32.8
	c3.17,7.8,6.37,15.71,7.41,24.06c1.04,8.35-0.3,17.34-5.47,23.99c10.02-1.31,18.46-9.08,22.36-18.41c0.75-1.8,1.35-3.64,1.82-5.52
	c1.22,1.8,2.43,3.61,3.62,5.43c18.27,27.83,47.79,32.94,34.45,93.6c33.55-9.75,61.11-40.34,69.05-76.66
	C479.01,952.96,498.94,920.08,491.92,884.84z"/>
<g>
	<path fill="#AE96B3" d="M1254.03,246.49c27.88,8.99,55.98,18.06,81.38,31.5s48.21,31.72,60.57,54.64
		c-44.81-30.74-92.3-58.65-141.91-83.42"/>
</g>
<g>
	<path fill="#AE96B3" d="M1743.99,494.93c0.97,15.79,1.84,32.21-4.17,46.84c-3.26,7.93-8.4,14.94-13.85,21.57
		c-17.87,21.75-41.84,41.28-69.95,42.77c1.67-6.69,8.79-10.18,14.95-13.29c37.26-18.81,65.24-55.03,74.03-95.82"/>
</g>
<g>
	<path fill="#AE96B3" d="M1277.81,954.34c-2.34-26.49-4.69-53.2-2.42-79.18c2.27-25.99,9.5-51.53,24.32-69.98
		c-9.88,48.34-16.45,97.92-19.64,148.17"/>
</g>
<g>
	<path fill="#DAD8E4" d="M622.69,457.68c-4.62-15.13-9.3-30.89-6.86-46.52c1.32-8.47,4.69-16.49,8.44-24.2
		c12.31-25.31,31.07-49.89,58.06-57.89c-0.07,6.89-6.18,11.95-11.44,16.41c-31.85,26.97-50.62,68.72-49.67,110.43"/>
</g>
<path fill="#9B93A2" d="M1110.98,362.33c-38.67-6.54-93.66-4.28-88,33.93c5.46,36.9,62.15,94.47,99.94,133.57
	c21.96,22.71,7.16,54.36,3.3,85.39c-12.65,101.65,30.94,132.63,29.28,176.55c-0.91,27.63-11.08,35.85-33.88,27.37
	c-0.62-0.23-13.88,0.74-14.33,2.61c-5.99,52.6,44.17,53.2,1.3,185.05c-4.25,13.03-5.27,61.84,1.39,62.36
	c30.76,2.6,24.79-44.78,86.59-26.77c17.95,5.23,22.14,5.87,22.24,5.93c3.66-5.59-2.22-52.75-3.68-90.49
	c1.27-23.78,2.29-48.78,2.3-48.89c0-0.25,0.01-0.5,0.01-0.75c1.75-21.27,0.68-33.77-0.35-42.9c0.17-10.99,20.24-10.23,23.13-20.08
	c7.44-13.77-5.57-18.9-23.46-22.15c-17.7-3.22-23.46-62.55-23.46-62.55s-14.87,24.83-16.64,11.05c0.53-10.24,3.3-21.58,7.9-33.04
	c14.98-37.33,13.92-63.42,12.01-103.68c-7.45-156.37,99.11-146.13,137.48-207.94C1397.81,324.91,1181.5,374.26,1110.98,362.33z"/>
<path fill="#E7E2E4" d="M1128.33,381.13c-38.67-6.54-93.66-4.28-88,33.93c5.46,36.9,86.64,61.9,103.34,129.14
	c7.72,30.63,3.76,58.79-0.1,89.82c-12.65,101.65,23.45,125.18,21.8,169.1c-0.91,27.63-24.69,33.46-47.49,24.98
	c-0.62-0.23-0.33-0.52-0.79,1.35c-5.99,52.6,40.13,63.92-2.74,195.76c-4.25,13.03-11.03,43.42-4.37,43.94
	c30.76,2.6,42.14-25.99,103.94-7.97c17.95,5.23,22.14,5.87,22.24,5.93c3.66-5.59-2.22-52.75-3.68-90.49
	c1.27-23.78,2.29-48.78,2.3-48.89c0-0.25,0.01-0.5,0.01-0.75c1.75-21.27,0.68-33.77-0.35-42.9c0.17-10.99,1.07-21.14,3.97-31
	c7.44-13.77,12.18-22.31-5.99-21.72c-3.79,0.12-7.27-0.09-10.46-0.6c-5.68-1.83-9.93-4.41-11.14-5.77l-0.01-0.01l0.03,0.04
	c-10.35-8.09-15.06-20.89-16.82-34.67c0.53-10.24,3.3-21.58,7.9-33.04c14.98-37.33,13.92-63.42,12.01-103.68
	c-7.45-156.37,62.15-149.56,100.53-211.37C1378.2,340.27,1198.85,393.05,1128.33,381.13z"/>
<g>
	<path fill="#E8A3AA" d="M1123.23,835.83c-1.85,1.89,9.96,17.7,27.02,22.78c18.76,5.58,36.06-1.16,43.28-2.91
		c18.36-4.45,27.85,8.15,38.92,1.56c1.24-0.74,0.37-3.06-0.81-2.37c-7.4,4.33-15.82-0.75-23.86-2.51
		c-15.47-3.38-45.44,17.29-70.36-2.63C1125.11,840.51,1125.12,833.91,1123.23,835.83L1123.23,835.83z M1127.77,840.46
		C1127.87,840.57,1127.86,840.56,1127.77,840.46L1127.77,840.46z M1202.37,854.34C1202.14,854.35,1202.09,854.34,1202.37,854.34
		L1202.37,854.34z M1137.37,849.71c0.01,0,0.01,0.01,0.02,0.01C1137.27,849.63,1137.28,849.64,1137.37,849.71L1137.37,849.71z"/>
	<path fill="#E8A3AA" d="M1175.96,886.45c-15.52,0.33-31.71-8.56-46.36-1.12c-1.14,0.57-0.51,2.97,0.8,2.33
		c13.8-6.76,29.72,1.66,44.83,1.5c16.45-0.18,39.62-18.13,51.47-3.67c0.85,1.07,1.74,0.35,1.82-0.58c0.16-1.83-5.12-6.43-11.12-7.34
		C1204.3,875.6,1188.25,886.05,1175.96,886.45z M1213.45,879.91C1213.21,879.91,1213.24,879.91,1213.45,879.91L1213.45,879.91z
		 M1219.75,880.7C1219.85,880.73,1219.83,880.73,1219.75,880.7L1219.75,880.7z M1223.82,882.73
		C1224.03,882.88,1223.99,882.86,1223.82,882.73L1223.82,882.73z M1175.86,886.46C1175.62,886.46,1175.61,886.46,1175.86,886.46
		L1175.86,886.46z M1132.72,886.66C1132.55,886.73,1132.51,886.74,1132.72,886.66L1132.72,886.66z"/>
	<path fill="#E8A3AA" d="M1133.49,912.66c12.18-4.3,24.09,8.99,37,12.92c9.78,2.97,21.59-1.52,30.95-4.35
		c21.83-6.6,24.33,0.27,24.64-3.16c0.64-7.72-40.01,5.86-48.06,6.07c0.74-0.04-3.97,2.13-20.68-7.48
		C1131.51,901.8,1125.07,915.85,1133.49,912.66z M1138.05,911.8C1137.96,911.8,1137.96,911.8,1138.05,911.8L1138.05,911.8z
		 M1133.38,912.7C1133.3,912.73,1133.3,912.73,1133.38,912.7L1133.38,912.7z M1170.11,923.01c0.01,0,0.02,0.01,0.03,0.01
		C1170.13,923.02,1170.12,923.02,1170.11,923.01L1170.11,923.01z"/>
	<path fill="#E8A3AA" d="M1222.53,936.53c-6.77,0.86-12.99,5.61-18.57,9.22c-17.43,11.31-24.65,5.24-45.54,0.71
		c-23.51-5.12-26.77,7.32-23.11,4.94c19.93-13.1,42.11,13.5,67.48-2.2c14.36-8.89,16.07-10.32,21.91-10.5
		c4.3-0.04,5.61,1.48,5.78-0.45C1230.72,935.66,1222.24,936.53,1222.53,936.53z M1224.58,938.7
		C1224.44,938.7,1224.41,938.7,1224.58,938.7L1224.58,938.7z M1186.8,952.13C1186.63,952.13,1186.66,952.13,1186.8,952.13
		L1186.8,952.13z M1195.08,950.53C1195.23,950.48,1195.21,950.48,1195.08,950.53L1195.08,950.53z M1218.3,939.99
		c-0.08,0.03-0.06,0.03,0.02-0.01C1218.31,939.98,1218.31,939.99,1218.3,939.99L1218.3,939.99z"/>
	<path fill="#E8A3AA" d="M1139.25,973.73c-11.83,1.16-13.53,6.39-7.12,3.96c16.38-6.02,29.91,4.1,45.59,9.64
		c16.13,5.68,24.61-0.04,40.3-3.99c6.1-1.54,12.25-1.17,9.61-3.68c-2.23-2.15-26.03,7.48-36.72,7.78c1.13-0.05-1.83,0.17-5.39-0.35
		C1171.93,985.1,1156.03,972.07,1139.25,973.73L1139.25,973.73z M1132.03,977.72C1131.89,977.78,1131.87,977.78,1132.03,977.72
		L1132.03,977.72z M1154.58,977.96C1154.87,978.06,1154.84,978.05,1154.58,977.96L1154.58,977.96z"/>
	<path fill="#E8A3AA" d="M1141.26,1002.23c-13.6,0.19-21.29,12.15-19.66,13.72c1.99,1.92,4.83-11,19.55-11
		c13.14-0.14,26.71,8.65,36.57,9.2c15.53,0.85,32.62-11.17,46.4-6.85c4.2,1.42,4.42,2.78,5.28,2.28c2.76-1.53-3.4-4.23-6.59-4.98
		c-9.72-2.29-21.94,2.94-32.51,5.5C1168.04,1015.48,1160.35,1001.9,1141.26,1002.23L1141.26,1002.23z M1141.02,1004.96
		C1140.84,1004.96,1140.81,1004.96,1141.02,1004.96L1141.02,1004.96z M1156.41,1007.83
		C1156.5,1007.86,1156.51,1007.87,1156.41,1007.83L1156.41,1007.83z M1180.34,1011.61
		C1180.16,1011.62,1180.19,1011.61,1180.34,1011.61L1180.34,1011.61z M1170.24,1009.92
		C1170.34,1009.96,1170.32,1009.95,1170.24,1009.92C1170.24,1009.92,1170.24,1009.92,1170.24,1009.92L1170.24,1009.92z"/>
	<path fill="#E8A3AA" d="M1112.84,1039.63c-0.97,1.09,0.3,2.75,1.12,1.81c16.22-18.32,36.97-14.62,57.59-6.32
		c21.64,8.71,37.81-3.89,56.74-0.19c0.92,0.17,2.37,0.99,2.52-0.73c0.61-6.56-36.55,2.84-48.82,1.28
		C1169.54,1033.92,1136.96,1012.39,1112.84,1039.63z M1219.76,1034.32C1219.54,1034.33,1219.54,1034.33,1219.76,1034.32
		L1219.76,1034.32z"/>
	<path fill="#E8A3AA" d="M1120.27,1049.1c-2.77-2.06-2.65-3.04-3.57-2.85c-3.65,0.68,3.55,12.02,26.16,7.88
		c11.91-2.17,21.55-6.31,31.68-6.79c41.01-2.13,53.62,14.76,55.45,14.4c4.93-1.05-12.36-13.35-35.14-16.21
		C1157.9,1040.9,1136.46,1060.49,1120.27,1049.1z"/>
</g>
<path fill="#11112F" d="M1207.89,375.93c-96.46,1.31-167.33-12.87-165.81,37.27c0.66,22.64,26.42,40.79,44.83,53.41
	c1.68,3.2,6.33,1.48,2.66-1.04c-1.67-1.14-0.45-0.78-4.82-6.96c-8.45-11.96-39.38-39.56-25.92-57.36
	c20.86-26.15,87.32-0.93,178.27-12.38c37.3-4.7,84.75-8.97,79.86,28.29c0.55-1.93-1.75,9.3-3.55,12.25
	c1.29-2.98-13.34,28.5-31.91,43.48c-29.09,23.45-45.85,47.4-39.87,47.4c1.41,0,1.67-3.32,8.77-12.58
	c29.49-37.92,109.98-78.6,70.51-123.32C1303.86,365.03,1277.91,375.03,1207.89,375.93z"/>
<g>
	<path fill="#11112F" d="M1148.52,423.06c-14.56,16.48,4.08,36.76,10.99,45.61c3.5,4.63,3.88,6.39,3.97,6.11
		c6.13-20.05-8.61-35.62-12.92-45.32C1149.76,427.51,1148.23,423.06,1148.52,423.06z M1150.41,429.14
		C1150.53,429.4,1150.53,429.41,1150.41,429.14L1150.41,429.14z M1150.65,429.68C1150.76,429.95,1150.77,429.98,1150.65,429.68
		L1150.65,429.68z"/>
	<path fill="#11112F" d="M1120.88,415.23c-6.36,21.59,13.85,36.96,19.03,42.86c0.23,0.23,1.14-11.21-5.78-23.48
		C1132.19,431.18,1120.65,415.23,1120.88,415.23z"/>
	<path fill="#11112F" d="M1180.01,483.83c0.08,0.23,5.72-13,5.94-22.61c0.24-10.7-4.21-22.92-3.8-22.92
		C1181.92,438.3,1170.63,457.12,1180.01,483.83z"/>
	<path fill="#11112F" d="M1248.19,437.85c-2.18,3.04-10.9,12.19-13.28,16.14c-5.26,8.72-3.78,18.7-3.5,18.42
		c4.34-7.75,9.58-10.5,13.32-17.56C1251.55,442.02,1247.07,437.85,1248.19,437.85z M1234.27,468.03
		C1234.04,468.35,1233.95,468.44,1234.27,468.03L1234.27,468.03z M1246.79,439.75c0.01-0.01,0.01-0.02,0.02-0.03l0,0
		C1246.8,439.73,1246.8,439.74,1246.79,439.75L1246.79,439.75z"/>
	<path fill="#11112F" d="M1182.67,533.43c0.46,26.1,2.42,23.49,5.26,38.73c0.12,0.23,6.39-8.72,4.64-20.65
		C1191.04,541.09,1182.45,533.43,1182.67,533.43z"/>
	<path fill="#11112F" d="M1171.32,612.91c-15.97,18.95,5.26,47.1,5.05,47.52c3.3-15.4-3.15-27.02-4.87-38.86
		C1171.36,620.42,1170.96,612.91,1171.32,612.91z M1171.44,621.14C1171.51,621.6,1171.51,621.72,1171.44,621.14L1171.44,621.14z"/>
	<path fill="#11112F" d="M1188.49,690.12c-2.5,11.71-1,21.84-0.77,21.62c4.74-9.14,23-30.42,6.14-50.82
		c-0.01-0.01-0.01-0.01-0.02-0.01c-0.02,0-0.03,0.01-0.03,0.03C1197.18,660.94,1188.54,689.9,1188.49,690.12z"/>
	<path fill="#11112F" d="M1170.87,723.17c-6,14.58,8.94,35.79,8.94,35.56C1182.84,744.41,1168.5,723.17,1170.87,723.17z"/>
	<path fill="#11112F" d="M1285.21,441.38c10.21-16.37,4.48-31.28-7.66-34.6c0,0-0.01,0-0.01,0c-0.02,0-0.03,0.02-0.02,0.04
		C1279.43,406.81,1285.71,440.38,1285.21,441.38z"/>
	<path fill="#11112F" d="M1213.22,429.71c0.07,0.22,8.02-24.95,8.94-24.95C1221.1,404.76,1203.99,412.9,1213.22,429.71z"/>
	<path fill="#11112F" d="M1074.57,407.47c-7.97,19.56,11.21,27.05,11.06,26.69C1085.62,434.93,1074.68,407.25,1074.57,407.47
		L1074.57,407.47z M1085.62,434.16c0-0.02-0.01-0.02-0.02-0.04C1085.61,434.13,1085.62,434.14,1085.62,434.16L1085.62,434.16z"/>
	<path fill="#11112F" d="M1183.01,783.96c-4.44,16.04-7.79,31.05,4.37,43.92c0.23,0.23-0.07-21.36-0.08-21.58
		C1186.71,792.47,1182.79,783.96,1183.01,783.96z"/>
	<path fill="#11112F" d="M1142.11,490.33c-0.09,15.66,10.08,26.89,13.64,35.01c0.07,0.22,3.27-7.8-1.18-18.25
		C1152.64,502.59,1142.11,490.11,1142.11,490.33L1142.11,490.33z"/>
	<path fill="#11112F" d="M1222.75,542.06c0.7,2.1,11.88-41.15,16.87-41.15C1238.07,500.92,1209.08,515.22,1222.75,542.06z"/>
	<path fill="#11112F" d="M1191.04,607.47c-0.18,8.37,4.77,16.1,8.26,23.37c0.22,0.32,3.26-8.37,3.41-19.93
		c0.02-1.72-1.87-23.99,0.43-23.99C1202.66,586.92,1191.35,592.96,1191.04,607.47z"/>
	<path fill="#11112F" d="M1168.5,701.22c0.23,0.08-0.39-0.99-1.1-5.57c-1.13-8.46,0.15-21.79-7.28-34.37c0-0.01-0.01-0.01-0.02-0.01
		c-0.01,0-0.02,0.01-0.03,0.02C1162.07,661.29,1145.71,689.53,1168.5,701.22z M1167.32,695.08
		C1167.38,695.46,1167.39,695.56,1167.32,695.08L1167.32,695.08z"/>
</g>
<g>
	<path fill="#D78B8F" d="M1378.31,443.1c-1.66,0.72-3.27,1.52-4.79,2.37c-30.11,16.91-49.45,47.58-67.53,77
		c-28.38,46.19-57.59,94.94-60.36,149.08c-1.33,25.92,3.55,51.7,5.32,77.59c7.41,108.62-39,223.28-2.14,324.13
		c8.53-0.85,14.02-5.02,13.31-15.4c3.66-3.21-8.7-10.38-8.01-54.61c4.28-282.26,35.52-147.14,27.91-273.34
		c-2.46-40.72-1.64-50.43,32.97-102.21C1362.02,557.42,1343.71,491.92,1378.31,443.1z"/>
</g>
<g>
	<path fill="#D78B8F" d="M1099.44,1074.25c24.8-73.86,33.6-154.19,13.46-229.2c-8.22-30.61-21.17-60.34-23.2-91.97
		c-2.37-37,10.25-75.69-2.74-110.42c-12.76-34.11-47.72-56.49-59.32-91.01c-7.08-21.05-4.54-44.04-8.07-65.96
		s-16.79-45.53-38.8-48.49l-4.15,1.75c2.41,3.28,4.5,6.73,6.23,10.35c9.14,20.3,10.04,47.68,12.17,67.81
		c5.66,53.66,21.07,62.23,55.6,103.81c39.19,47.21,23.55,74.73,23.55,130.71c0,81.57,67.08,140.23,20.98,264.34
		c-12.27,33.05-11.58,55.2-5.04,55.2C1092.78,1071.16,1094.7,1072.79,1099.44,1074.25z"/>
</g>
<path fill="#DAD8E4" d="M1455.14,1002c-13.44,15.7-20.41,36.67-18.7,56.42c0.37,4.27,1.44,8.41,3.15,12.21
	c0.87,14.04,2.63,28.26,13.74,38.85c17.39,16.57,47.77,12.46,62.87-4.15c21.78-23.96,12.09-67.83,1.08-94.26
	C1506.52,985.26,1474.27,979.66,1455.14,1002z"/>
<path fill="#DAD8E4" d="M1539.07,899.4c-6.78-5.6-17.31-6.04-24.03,0c-3.02,2.72-6.04,5.43-9.06,8.15c-6.29,5.66-6.76,16.03,0,21.61
	c6.78,5.6,17.31,6.04,24.03,0c3.02-2.72,6.04-5.43,9.06-8.15C1545.36,915.35,1545.83,904.99,1539.07,899.4z"/>
<g>
	<path fill="#DAD8E4" d="M69.55,923.83c-4.62-15.13-9.3-30.89-6.86-46.52c1.32-8.47,4.69-16.49,8.44-24.2
		c12.31-25.31,31.07-49.89,58.06-57.89c-0.07,6.89-6.18,11.95-11.44,16.41C85.9,838.6,67.13,880.34,68.09,922.05"/>
</g>
<g>
	<path fill="#DAD8E4" d="M1868.86,924.78c8.77,13.16,17.78,26.92,19.94,42.59c1.17,8.5,0.25,17.14-1.13,25.61
		c-4.52,27.78-15.43,56.71-38.99,72.13c-1.91-6.62,2.48-13.22,6.24-19.01c22.76-34.98,28.75-80.36,15.85-120.04"/>
</g>
<g>
	<path fill="#DAD8E4" d="M1028.92,128.78c19.79-17.1,40.52-34.69,66.38-40.36c14.02-3.07,28.88-2.46,43.56-1.02
		c48.16,4.73,100.05,20.66,132.62,60.6c-10.65,4.17-23.02-2.84-33.83-8.83c-65.39-36.21-143.68-41.48-207.1-13.94"/>
</g>
<g>
	<path fill="#DAD8E4" d="M1217.02,87.83c15.81-0.56,32.25-1,46.72,5.39c7.85,3.46,14.72,8.79,21.2,14.4
		c21.27,18.43,40.17,42.9,40.93,71.05c-6.64-1.85-9.95-9.06-12.9-15.29c-17.83-37.73-53.31-66.65-93.85-76.5"/>
</g>
<g>
	<path fill="#DAD8E4" d="M1880.84,1055.78c-15.65,24.76-31.45,49.71-50.8,70.95c-19.35,21.24-42.73,38.78-68.02,45.03
		c40.94-35.73,79.82-74.76,116.17-116.63"/>
</g>
<g>
	<path fill="#DAD8E4" d="M789.7,970.55c-11.68,34.7,9.36,73.64,39.61,94.28c30.24,20.64,67.62,27.21,103.73,33.29
		c17.67,2.97,36.05,5.92,53.29,1.02c35.02-9.95,53.87-49.15,56.57-85.46c2.7-36.31-6.21-72.56-5.56-108.97
		c0.55-31.35,6.97-66.83-13.37-90.69c-13.6-15.95-36.48-21.73-57.25-18.86c-20.76,2.87-39.75,13.23-57.02,25.11
		c-15.77,10.85-30.72,23.29-41.92,38.81c-9.97,13.81-16.74,29.74-26.92,43.39c-10.4,13.95-24.07,25.15-34.99,38.69
		c-10.93,13.54-19.24,30.87-15.96,47.96"/>
</g>
<path fill="#CEC3D7" d="M968.31,837.52c-12.71-0.15-25.96,5.41-35.61,14.99c-2.09,2.07-3.87,4.45-5.25,7.02
	c-6.98,6.62-13.75,13.8-15.45,24.27c-2.66,16.39,9.82,30.51,23.57,31.13c19.84,0.89,39.27-23.46,49.21-40.84
	C994.49,857.1,986.41,837.73,968.31,837.52z"/>
<g>
	<path fill="#D38D77" d="M483.5,763.09c-2.29,2.89-2.04,9.53,0,12.6s8.88,2.53,12.2,0.94c-4.59,6.27-8,13.4-10.02,20.91
		c-1.45,5.38-2.14,11.29,0.09,16.39c2.23,5.11,8.19,8.9,13.45,7.08c4.92-1.7,8.84-7.72,13.79-6.13c4.81,1.54,4.94,8.71,8.97,11.76
		c0.8,0.61,1.78,1.03,2.79,0.97c1.58-0.1,2.83-1.35,3.83-2.58c5.52-6.86,8.09-15.58,10.13-24.14c1.01-4.22,1.92-8.62,0.97-12.85
		c-0.73-3.23-2.49-6.12-4.25-8.94c-4.1-6.59-8.27-13.13-12.51-19.63c-1.29-1.97-2.62-3.99-4.53-5.38c-2.4-1.74-5.44-2.3-8.38-2.74
		c-5.03-0.76-10.31-1.28-15.08,0.5C490.18,753.61,482.8,758.05,483.5,763.09"/>
</g>
<g>
	<path fill="#F6B799" d="M546.92,758.75c7.76-13.02,11.68-18.56,22.74-28.93c2.6-2.43,6.4-4.91,9.41-3c3.05,1.93,2.95,6.85,1.01,9.9
		c-4.49,7.04-1.25,2.47-7.31,10.52c-3.2,4.25-6.15,8.51-9.18,12.89c-3.02,4.38-5.06,9.79-3.98,15c0.65,3.11,2.34,5.91,3.26,8.95
		c0.85,2.85,1,5.86,1.07,8.84c0.14,6.35-0.08,12.71-0.65,19.03c-0.59,6.51-1.56,13.08-0.73,19.56c0.7,5.49,2.67,10.73,4.68,15.88
		c6.06,15.49,11.97,28,19.21,42.98c-7.66,0.45-13.9,7.38-20.59,10.99c-4.67,2.51-10.16,6.32-15.46,6.17
		c-0.88-0.02-1.78-0.05-2.59-0.41c-0.93-0.41-2.3-5.95-2.56-6.93c-2.89-11.13-6.96-16.29-9.23-24.92
		c-2.84-10.78-14.79-27.47-17.33-38.33c-2.54-10.86,0.91-15.25,5-25.63c1.21-3.07,6.38-7.12,6.29-10.42
		c-0.11-4.29-3.1-7.9-5.94-11.12c-0.91-1.04-1.98-2.15-3.35-2.22c-2.12-0.1-3.44,2.22-4.24,4.19c-1.58,3.91-3.17,7.82-4.75,11.72
		c-2.12,5.24-5.51,11.37-11.16,11.32c-4.41-0.04-7.87-4.31-8.47-8.68c-0.59-4.37,0.99-8.72,2.78-12.76
		c3.03-6.84,6.72-13.39,11.01-19.52c1.53-2.18,3.2-4.38,5.51-5.7c4.53-2.6,9.46-3.83,14.49-2.42c1.08-1.78,0.87-1.67-0.86-2.83
		c-1.72-1.16-3.94-1.27-6.01-1.07c-10.68,1.07-20.16,9.55-30.82,8.25c-1.94-0.24-4.17-1.16-4.5-3.08c-0.26-1.52,0.81-2.92,1.86-4.06
		c7.24-7.88,16.46-13.94,26.57-17.45c4.42-1.54,9.22-2.6,13.75-1.43c4.63,1.19,8.35,4.53,11.87,7.76c2.94,2.7,5.88,5.39,8.82,8.09"
		/>
</g>
<g>
	<g>
		<path fill="#D38D77" d="M545.9,760.44c4.61,2.65,8.15,6.97,9.79,12.03c0.5,1.52,2.91,0.87,2.41-0.66
			c-1.84-5.67-5.77-10.55-10.94-13.53C545.77,757.48,544.51,759.64,545.9,760.44L545.9,760.44z"/>
	</g>
</g>
</svg>
